<mxfile host="www.draw.io" modified="2019-11-27T21:59:47.155Z" agent="Mozilla/5.0 (Macintosh; Intel Mac OS X 10.14; rv:70.0) Gecko/20100101 Firefox/70.0" etag="p_EwIy25uMD0cIRFUS0C" version="12.3.2" type="github" pages="1">
  <diagram id="VXpv7-vEXYzIDr4mmjwC" name="Page-1">
    <mxGraphModel dx="1493" dy="858" grid="1" gridSize="10" guides="1" tooltips="1" connect="1" arrows="1" fold="1" page="1" pageScale="1" pageWidth="827" pageHeight="1169" math="0" shadow="0">
      <root>
        <mxCell id="0"/>
        <mxCell id="1" parent="0"/>
      </root>
    </mxGraphModel>
  </diagram>
</mxfile>
